<mxfile host="app.diagrams.net" modified="2023-10-05T21:22:22.868Z" agent="Mozilla/5.0 (Windows NT 10.0; Win64; x64) AppleWebKit/537.36 (KHTML, like Gecko) Chrome/117.0.0.0 Safari/537.36" version="22.0.2" etag="2nO5k7VGKhEg5k8uN3cl" type="github">
  <diagram name="PÃ¡gina-1" id="jnUBX41QICUTWfSVPCFn">
    <mxGraphModel>
      <root>
        <mxCell id="0" />
        <mxCell id="1" parent="0" />
      </root>
    </mxGraphModel>
  </diagram>
</mxfile>
